<?xml version="1.0" encoding="UTF-8"?>
<svg xmlns="http://www.w3.org/2000/svg" xmlns:xlink="http://www.w3.org/1999/xlink" width="64pt" height="64pt" viewBox="0 0 64 64" version="1.1">
<g id="surface1">
<path style=" stroke:none;fill-rule:nonzero;fill:rgb(13.72549%,13.72549%,13.72549%);fill-opacity:1;" d="M 28.75 62.375 C 24.773438 61.273438 21.226562 58.5 18.851562 54.601562 L 17.601562 52.550781 L 16.101562 53.175781 C 14.476562 53.851562 9.726562 55.300781 9.601562 55.175781 C 9.550781 55.125 9.726562 53.574219 10 51.726562 C 10.273438 49.875 10.5 48.148438 10.5 47.875 C 10.5 47.5 9.574219 46.824219 6.75 45.148438 C 4.675781 43.925781 2.949219 42.851562 2.875 42.75 C 2.824219 42.675781 3.75 41.949219 4.949219 41.175781 C 7.875 39.300781 9.851562 37.550781 9.523438 37.148438 C 9.375 36.976562 7.476562 35.625 5.324219 34.175781 C 0.148438 30.675781 0.351562 30.851562 0.726562 30.398438 C 1.375 29.625 5.300781 27.199219 8.074219 25.851562 L 10.976562 24.449219 L 9.949219 22.425781 C 8.601562 19.726562 7.324219 15.949219 6.726562 12.898438 C 6.476562 11.523438 6.300781 10.375 6.324219 10.324219 C 6.375 10.300781 7.25 10.425781 8.273438 10.601562 C 11.023438 11.125 16.101562 11.75 17.625 11.75 L 18.949219 11.75 L 19.226562 10.199219 C 19.398438 9.324219 19.648438 6.949219 19.800781 4.898438 L 20.101562 1.199219 L 21.523438 1.300781 C 22.523438 1.375 23.449219 1.648438 24.550781 2.226562 C 26.226562 3.125 29.476562 5.5 31.125 7.023438 L 32.125 7.976562 L 32.875 7.375 C 35.351562 5.5 39 3.449219 40.898438 2.875 C 41.574219 2.675781 42.648438 2.5 43.273438 2.5 L 44.425781 2.5 L 44.574219 6.449219 C 44.800781 11.476562 44.976562 12.824219 45.398438 12.648438 C 46.601562 12.175781 50.023438 11.699219 52.25 11.675781 C 54.898438 11.648438 58.25 12.125 58.25 12.523438 C 58.25 12.648438 57.726562 13.449219 57.101562 14.300781 C 54.925781 17.25 52.074219 23.824219 52.773438 24.25 C 53.398438 24.648438 56.875 25 60 25 C 62.773438 25 63.25 25.050781 63.25 25.398438 C 63.25 26.675781 59.875 32.449219 57.625 35 C 56.949219 35.75 56.199219 36.625 55.949219 36.898438 C 55.476562 37.425781 55.476562 37.449219 56.699219 38.226562 C 57.375 38.648438 58.476562 39.199219 59.148438 39.398438 C 59.824219 39.625 60.476562 39.898438 60.574219 40 C 60.898438 40.273438 59.675781 42.523438 58.574219 43.648438 C 57.25 45.023438 54.875 46.976562 53.425781 47.875 C 52.050781 48.75 52.023438 48.875 52.75 52 C 53.023438 53.175781 53.25 54.273438 53.25 54.449219 C 53.25 55.050781 48.75 54.625 46.5 53.800781 C 45.925781 53.574219 45.800781 53.699219 44.523438 55.550781 C 41.425781 60.074219 37.425781 62.425781 32.5 62.648438 C 30.875 62.726562 29.699219 62.625 28.75 62.375 Z M 28.75 62.375 "/>
<path style=" stroke:none;fill-rule:nonzero;fill:rgb(63.921569%,82.352941%,64.705882%);fill-opacity:1;" d="M 28.726562 60.898438 C 26.625 60.300781 24.449219 58.949219 22.625 57.125 C 20.550781 55.023438 19.449219 53.25 18.476562 50.449219 C 17.449219 47.425781 17.175781 44.5 17.300781 37.199219 C 17.425781 29.875 17.675781 28.398438 19.375 24.875 C 21.925781 19.648438 26.101562 16.476562 31.023438 16.074219 C 37.875 15.5 44.226562 20.925781 46.148438 29 C 46.699219 31.375 46.949219 42.273438 46.523438 45.925781 C 45.648438 53.324219 41.101562 59.324219 35.148438 60.898438 C 33.574219 61.324219 30.273438 61.324219 28.726562 60.898438 Z M 31.425781 57.5 C 31.976562 57.175781 32.351562 56.648438 32.648438 55.800781 C 32.925781 55.023438 33.324219 54.449219 33.75 54.199219 C 34.449219 53.800781 35.25 52.375 35.25 51.523438 C 35.25 50.824219 36.273438 50.824219 39.425781 51.550781 L 41.824219 52.101562 L 42.273438 51.523438 C 43.273438 50.300781 42.675781 49.601562 40.125 48.976562 C 34.550781 47.648438 28.324219 47.75 22.773438 49.25 C 21.476562 49.601562 21 50.476562 21.648438 51.425781 C 22 51.976562 22.175781 52.023438 23 51.898438 C 23.523438 51.824219 24.125 51.699219 24.324219 51.601562 C 24.574219 51.523438 24.75 51.699219 24.851562 52.148438 C 25.074219 53.050781 25.898438 54.175781 26.449219 54.351562 C 26.675781 54.425781 27.074219 55.074219 27.324219 55.75 C 27.824219 57.125 28.851562 58 30 58 C 30.351562 58 30.976562 57.773438 31.425781 57.5 Z M 33.25 45.300781 C 34 44.550781 34.351562 43.523438 34.625 41.324219 L 34.800781 40 L 34.050781 40 C 33.324219 40 33.324219 40.023438 33.199219 41.574219 C 33.074219 43.125 32.449219 44.75 32 44.75 C 31.550781 44.75 30.925781 43.125 30.800781 41.574219 C 30.675781 40.023438 30.675781 40 29.949219 40 L 29.199219 40 L 29.375 41.324219 C 29.648438 43.523438 30 44.550781 30.75 45.300781 C 31.148438 45.675781 31.699219 46 32 46 C 32.300781 46 32.851562 45.675781 33.25 45.300781 Z M 27.851562 39.699219 C 29.148438 39.300781 31.375 37.148438 31.625 36.050781 C 31.699219 35.601562 31.875 35.25 32 35.25 C 32.125 35.25 32.300781 35.601562 32.375 36.050781 C 32.625 37.148438 34.851562 39.300781 36.148438 39.699219 C 38.5 40.398438 40.375 39.898438 42.125 38.125 C 44.476562 35.800781 44.648438 32.675781 42.574219 30.273438 C 41.800781 29.351562 41.773438 29.273438 42.226562 29.125 C 42.949219 28.898438 44 27.550781 44 26.851562 C 44 25.875 43.351562 24.851562 42.476562 24.5 C 41.824219 24.226562 41.425781 24.226562 40.273438 24.476562 C 37.050781 25.175781 35.675781 25.300781 32 25.300781 C 28.324219 25.300781 26.949219 25.175781 23.726562 24.476562 C 22.574219 24.226562 22.175781 24.226562 21.523438 24.5 C 20.648438 24.851562 20 25.875 20 26.851562 C 20 27.550781 21.050781 28.898438 21.773438 29.125 C 22.226562 29.273438 22.199219 29.351562 21.425781 30.273438 C 19.351562 32.675781 19.523438 35.800781 21.875 38.125 C 23.625 39.898438 25.5 40.375 27.851562 39.699219 Z M 27.851562 39.699219 "/>
<path style=" stroke:none;fill-rule:nonzero;fill:rgb(63.921569%,82.352941%,64.705882%);fill-opacity:1;" d="M 29.273438 56.324219 C 28.976562 56.074219 28.574219 55.324219 28.398438 54.625 C 28.175781 53.675781 27.976562 53.351562 27.574219 53.300781 C 26.523438 53.148438 25.625 51.449219 26.425781 51.125 C 26.675781 51.023438 28.5 50.875 30.476562 50.800781 L 34.074219 50.675781 L 33.898438 51.5 C 33.699219 52.5 33.148438 53.199219 32.425781 53.300781 C 32.023438 53.351562 31.824219 53.675781 31.601562 54.625 C 31.300781 55.726562 30.550781 56.75 30 56.75 C 29.898438 56.75 29.574219 56.550781 29.273438 56.324219 Z M 29.273438 56.324219 "/>
<path style=" stroke:none;fill-rule:nonzero;fill:rgb(63.921569%,82.352941%,64.705882%);fill-opacity:1;" d="M 24.425781 38.375 C 21.175781 37.226562 20.273438 33.175781 22.726562 30.726562 C 26.101562 27.324219 31.75 30.625 30.5 35.273438 C 30.125 36.648438 28.699219 38.101562 27.375 38.476562 C 26.101562 38.824219 25.601562 38.800781 24.425781 38.375 Z M 26.101562 35.675781 C 26.601562 35.300781 26.726562 34.125 26.300781 33.699219 C 25.875 33.273438 24.699219 33.398438 24.324219 33.898438 C 23.898438 34.5 23.925781 35 24.425781 35.550781 C 24.898438 36.074219 25.476562 36.125 26.101562 35.675781 Z M 26.101562 35.675781 "/>
<path style=" stroke:none;fill-rule:nonzero;fill:rgb(63.921569%,82.352941%,64.705882%);fill-opacity:1;" d="M 36.375 38.398438 C 32.824219 37.074219 32.273438 32.226562 35.449219 30.101562 C 39.523438 27.351562 44.523438 32.25 41.949219 36.449219 C 40.824219 38.25 38.375 39.125 36.375 38.398438 Z M 39.875 33.648438 C 40.050781 33.125 40 32.898438 39.574219 32.449219 C 38.523438 31.425781 36.949219 32.574219 37.574219 33.925781 C 38.023438 34.949219 39.449219 34.773438 39.875 33.648438 Z M 39.875 33.648438 "/>
<path style=" stroke:none;fill-rule:nonzero;fill:rgb(63.921569%,82.352941%,64.705882%);fill-opacity:1;" d="M 31.625 32 C 31.523438 31.601562 31.351562 31.199219 31.226562 31.125 C 30.699219 30.773438 31.074219 30.5 32 30.5 C 32.925781 30.5 33.300781 30.773438 32.773438 31.125 C 32.648438 31.199219 32.476562 31.601562 32.375 32 C 32.175781 32.949219 31.824219 32.949219 31.625 32 Z M 31.625 32 "/>
<path style=" stroke:none;fill-rule:nonzero;fill:rgb(63.921569%,82.352941%,64.705882%);fill-opacity:1;" d="M 25.375 28.601562 C 22.699219 28.125 21.800781 27.800781 21.5 27.226562 C 21.199219 26.675781 21.5 25.898438 22.148438 25.648438 C 22.375 25.574219 23.175781 25.648438 23.949219 25.875 C 28.699219 27.074219 35.726562 26.976562 41.050781 25.625 C 41.523438 25.5 41.851562 25.601562 42.226562 25.976562 C 42.875 26.625 42.875 26.875 42.273438 27.476562 C 41.800781 27.949219 40.324219 28.351562 37.425781 28.773438 C 35.050781 29.101562 27.648438 29 25.375 28.601562 Z M 25.375 28.601562 "/>
<path style=" stroke:none;fill-rule:nonzero;fill:rgb(63.921569%,82.352941%,64.705882%);fill-opacity:1;" d="M 11.324219 52.601562 C 11.550781 51.398438 12.074219 46.726562 11.976562 46.648438 C 11.925781 46.601562 10.5 45.75 8.800781 44.75 C 7.125 43.75 5.675781 42.851562 5.625 42.75 C 5.550781 42.648438 5.949219 42.273438 6.476562 41.925781 C 7 41.574219 8.476562 40.425781 9.75 39.375 L 12.050781 37.449219 L 11.449219 36.824219 C 11.148438 36.476562 9.101562 35.023438 6.949219 33.574219 C 4.773438 32.148438 2.949219 30.875 2.875 30.75 C 2.523438 30.199219 11.375 25.5 12.824219 25.5 C 13.375 25.5 13.375 25.425781 12.648438 24.300781 C 11.75 22.851562 10.324219 19.949219 9.648438 18.199219 C 9.023438 16.523438 7.925781 12.25 8.074219 12.101562 C 8.125 12.050781 9.101562 12.175781 10.273438 12.375 C 12.800781 12.800781 17.101562 13.25 18.773438 13.25 C 19.976562 13.25 19.976562 13.25 20.25 12.273438 C 20.699219 10.550781 21.25 6.425781 21.25 4.574219 C 21.25 2.851562 21.273438 2.75 21.824219 2.75 C 23.226562 2.75 26.898438 5.175781 30.425781 8.375 L 32 9.800781 L 33.675781 8.574219 C 37.226562 6.023438 41.023438 4 42.273438 4 L 42.925781 4 L 43.074219 6.75 C 43.273438 9.949219 43.726562 13.824219 43.976562 14.226562 C 44.125 14.425781 44.800781 14.351562 46.5 13.875 C 49.175781 13.175781 52.523438 12.851562 54.574219 13.101562 L 55.976562 13.273438 L 55.074219 14.699219 C 54.574219 15.476562 53.75 17.023438 53.226562 18.148438 C 52.273438 20.125 50.75 24.476562 50.75 25.125 C 50.75 25.574219 54.476562 26.25 58.199219 26.425781 C 59.875 26.5 61.25 26.648438 61.25 26.726562 C 61.25 27.074219 59.175781 30.625 58.226562 31.925781 C 57.625 32.726562 56.300781 34.25 55.273438 35.324219 L 53.375 37.300781 L 54.449219 38.25 C 55.023438 38.773438 56.226562 39.574219 57.125 40.023438 C 58.023438 40.5 58.75 40.949219 58.75 41.050781 C 58.75 41.300781 57.324219 42.925781 56.148438 44 C 55.101562 44.949219 51.425781 47.648438 50.949219 47.800781 C 50.699219 47.898438 50.699219 48.351562 50.949219 50.023438 C 51.125 51.175781 51.324219 52.398438 51.425781 52.726562 C 51.574219 53.300781 51.550781 53.324219 50.351562 53.199219 C 49.675781 53.125 48.5 52.875 47.726562 52.648438 L 46.300781 52.226562 L 46.925781 50.300781 C 47.273438 49.25 47.574219 48.25 47.625 48.101562 C 47.675781 47.949219 48.050781 47.75 48.476562 47.675781 C 49.601562 47.449219 51.398438 45.550781 51.75 44.199219 C 52.398438 41.800781 51.375 39.226562 49.273438 38.050781 L 48.074219 37.398438 L 47.925781 33.625 C 47.75 28.398438 46.800781 25.273438 44.226562 21.476562 C 42.925781 19.574219 40.351562 17.25 38.449219 16.300781 C 30.851562 12.5 22.398438 15.773438 18.148438 24.175781 C 16.800781 26.851562 16.199219 29.550781 16.074219 33.625 L 15.925781 37.398438 L 14.726562 38.050781 C 12.625 39.226562 11.601562 41.800781 12.25 44.199219 C 12.601562 45.523438 14.351562 47.375 15.523438 47.675781 C 16.25 47.875 16.375 48.050781 16.800781 49.5 C 17.148438 50.75 17.175781 51.148438 16.925781 51.300781 C 16.550781 51.550781 12.726562 52.925781 11.824219 53.148438 C 11.226562 53.324219 11.175781 53.273438 11.324219 52.601562 Z M 11.324219 52.601562 "/>
<path style=" stroke:none;fill-rule:nonzero;fill:rgb(63.921569%,82.352941%,64.705882%);fill-opacity:1;" d="M 14.625 45.449219 C 13.199219 44 12.949219 42.726562 13.800781 41.074219 C 14.324219 40 15.574219 38.75 15.851562 39.023438 C 16.074219 39.226562 16.125 46.5 15.898438 46.5 C 15.773438 46.5 15.199219 46.023438 14.625 45.449219 Z M 14.625 45.449219 "/>
<path style=" stroke:none;fill-rule:nonzero;fill:rgb(63.921569%,82.352941%,64.705882%);fill-opacity:1;" d="M 47.949219 42.824219 C 48 40.773438 48.101562 39.074219 48.148438 39.023438 C 48.425781 38.75 49.675781 40 50.199219 41.074219 C 51.050781 42.726562 50.800781 44 49.375 45.449219 C 48.800781 46.023438 48.226562 46.5 48.101562 46.5 C 47.976562 46.5 47.898438 44.851562 47.949219 42.824219 Z M 47.949219 42.824219 "/>
<path style=" stroke:none;fill-rule:nonzero;fill:rgb(84.313725%,80.784314%,79.607843%);fill-opacity:1;" d="M 28.726562 60.898438 C 26.625 60.300781 24.449219 58.949219 22.625 57.125 C 20.550781 55.023438 19.449219 53.25 18.476562 50.449219 C 17.449219 47.425781 17.175781 44.5 17.300781 37.199219 C 17.425781 29.875 17.675781 28.398438 19.375 24.875 C 21.925781 19.648438 26.101562 16.476562 31.023438 16.074219 C 37.875 15.5 44.226562 20.925781 46.148438 29 C 46.699219 31.375 46.949219 42.273438 46.523438 45.925781 C 45.648438 53.324219 41.101562 59.324219 35.148438 60.898438 C 33.574219 61.324219 30.273438 61.324219 28.726562 60.898438 Z M 31.425781 57.5 C 31.976562 57.175781 32.351562 56.648438 32.648438 55.800781 C 32.925781 55.023438 33.324219 54.449219 33.75 54.199219 C 34.449219 53.800781 35.25 52.375 35.25 51.523438 C 35.25 50.824219 36.273438 50.824219 39.425781 51.550781 L 41.824219 52.101562 L 42.273438 51.523438 C 43.273438 50.300781 42.675781 49.601562 40.125 48.976562 C 34.550781 47.648438 28.324219 47.75 22.773438 49.25 C 21.476562 49.601562 21 50.476562 21.648438 51.425781 C 22 51.976562 22.175781 52.023438 23 51.898438 C 23.523438 51.824219 24.125 51.699219 24.324219 51.601562 C 24.574219 51.523438 24.75 51.699219 24.851562 52.148438 C 25.074219 53.050781 25.898438 54.175781 26.449219 54.351562 C 26.675781 54.425781 27.074219 55.074219 27.324219 55.75 C 27.824219 57.125 28.851562 58 30 58 C 30.351562 58 30.976562 57.773438 31.425781 57.5 Z M 33.25 45.300781 C 34 44.550781 34.351562 43.523438 34.625 41.324219 L 34.800781 40 L 34.050781 40 C 33.324219 40 33.324219 40.023438 33.199219 41.574219 C 33.074219 43.125 32.449219 44.75 32 44.75 C 31.550781 44.75 30.925781 43.125 30.800781 41.574219 C 30.675781 40.023438 30.675781 40 29.949219 40 L 29.199219 40 L 29.375 41.324219 C 29.648438 43.523438 30 44.550781 30.75 45.300781 C 31.148438 45.675781 31.699219 46 32 46 C 32.300781 46 32.851562 45.675781 33.25 45.300781 Z M 27.851562 39.699219 C 29.148438 39.300781 31.375 37.148438 31.625 36.050781 C 31.699219 35.601562 31.875 35.25 32 35.25 C 32.125 35.25 32.300781 35.601562 32.375 36.050781 C 32.625 37.148438 34.851562 39.300781 36.148438 39.699219 C 38.5 40.398438 40.375 39.898438 42.125 38.125 C 44.476562 35.800781 44.648438 32.675781 42.574219 30.273438 C 41.800781 29.351562 41.773438 29.273438 42.226562 29.125 C 42.949219 28.898438 44 27.550781 44 26.851562 C 44 25.875 43.351562 24.851562 42.476562 24.5 C 41.824219 24.226562 41.425781 24.226562 40.273438 24.476562 C 37.050781 25.175781 35.675781 25.300781 32 25.300781 C 28.324219 25.300781 26.949219 25.175781 23.726562 24.476562 C 22.574219 24.226562 22.175781 24.226562 21.523438 24.5 C 20.648438 24.851562 20 25.875 20 26.851562 C 20 27.550781 21.050781 28.898438 21.773438 29.125 C 22.226562 29.273438 22.199219 29.351562 21.425781 30.273438 C 19.351562 32.675781 19.523438 35.800781 21.875 38.125 C 23.625 39.898438 25.5 40.375 27.851562 39.699219 Z M 27.851562 39.699219 "/>
<path style=" stroke:none;fill-rule:nonzero;fill:rgb(84.313725%,80.784314%,79.607843%);fill-opacity:1;" d="M 31.625 32 C 31.523438 31.601562 31.351562 31.199219 31.226562 31.125 C 30.699219 30.773438 31.074219 30.5 32 30.5 C 32.925781 30.5 33.300781 30.773438 32.773438 31.125 C 32.648438 31.199219 32.476562 31.601562 32.375 32 C 32.175781 32.949219 31.824219 32.949219 31.625 32 Z M 31.625 32 "/>
<path style=" stroke:none;fill-rule:nonzero;fill:rgb(84.313725%,80.784314%,79.607843%);fill-opacity:1;" d="M 25.375 28.601562 C 22.699219 28.125 21.800781 27.800781 21.5 27.226562 C 21.199219 26.675781 21.5 25.898438 22.148438 25.648438 C 22.375 25.574219 23.175781 25.648438 23.949219 25.875 C 28.699219 27.074219 35.726562 26.976562 41.050781 25.625 C 41.523438 25.5 41.851562 25.601562 42.226562 25.976562 C 42.875 26.625 42.875 26.875 42.273438 27.476562 C 41.800781 27.949219 40.324219 28.351562 37.425781 28.773438 C 35.050781 29.101562 27.648438 29 25.375 28.601562 Z M 25.375 28.601562 "/>
<path style=" stroke:none;fill-rule:nonzero;fill:rgb(84.313725%,80.784314%,79.607843%);fill-opacity:1;" d="M 11.324219 52.601562 C 11.550781 51.398438 12.074219 46.726562 11.976562 46.648438 C 11.925781 46.601562 10.5 45.75 8.800781 44.75 C 7.125 43.75 5.675781 42.851562 5.625 42.75 C 5.550781 42.648438 5.949219 42.273438 6.476562 41.925781 C 7 41.574219 8.476562 40.425781 9.75 39.375 L 12.050781 37.449219 L 11.449219 36.824219 C 11.148438 36.476562 9.101562 35.023438 6.949219 33.574219 C 4.773438 32.148438 2.949219 30.875 2.875 30.75 C 2.523438 30.199219 11.375 25.5 12.824219 25.5 C 13.375 25.5 13.375 25.425781 12.648438 24.300781 C 11.75 22.851562 10.324219 19.949219 9.648438 18.199219 C 9.023438 16.523438 7.925781 12.25 8.074219 12.101562 C 8.125 12.050781 9.101562 12.175781 10.273438 12.375 C 12.800781 12.800781 17.101562 13.25 18.773438 13.25 C 19.976562 13.25 19.976562 13.25 20.25 12.273438 C 20.699219 10.550781 21.25 6.425781 21.25 4.574219 C 21.25 2.851562 21.273438 2.75 21.824219 2.75 C 23.226562 2.75 26.898438 5.175781 30.425781 8.375 L 32 9.800781 L 33.675781 8.574219 C 37.226562 6.023438 41.023438 4 42.273438 4 L 42.925781 4 L 43.074219 6.75 C 43.273438 9.949219 43.726562 13.824219 43.976562 14.226562 C 44.125 14.425781 44.800781 14.351562 46.5 13.875 C 49.175781 13.175781 52.523438 12.851562 54.574219 13.101562 L 55.976562 13.273438 L 55.074219 14.699219 C 54.574219 15.476562 53.75 17.023438 53.226562 18.148438 C 52.273438 20.125 50.75 24.476562 50.75 25.125 C 50.75 25.574219 54.476562 26.25 58.199219 26.425781 C 59.875 26.5 61.25 26.648438 61.25 26.726562 C 61.25 27.074219 59.175781 30.625 58.226562 31.925781 C 57.625 32.726562 56.300781 34.25 55.273438 35.324219 L 53.375 37.300781 L 54.449219 38.25 C 55.023438 38.773438 56.226562 39.574219 57.125 40.023438 C 58.023438 40.5 58.75 40.949219 58.75 41.050781 C 58.75 41.300781 57.324219 42.925781 56.148438 44 C 55.101562 44.949219 51.425781 47.648438 50.949219 47.800781 C 50.699219 47.898438 50.699219 48.351562 50.949219 50.023438 C 51.125 51.175781 51.324219 52.398438 51.425781 52.726562 C 51.574219 53.300781 51.550781 53.324219 50.351562 53.199219 C 49.675781 53.125 48.5 52.875 47.726562 52.648438 L 46.300781 52.226562 L 46.925781 50.300781 C 47.273438 49.25 47.574219 48.25 47.625 48.101562 C 47.675781 47.949219 48.050781 47.75 48.476562 47.675781 C 49.601562 47.449219 51.398438 45.550781 51.75 44.199219 C 52.398438 41.800781 51.375 39.226562 49.273438 38.050781 L 48.074219 37.398438 L 47.925781 33.625 C 47.75 28.398438 46.800781 25.273438 44.226562 21.476562 C 42.925781 19.574219 40.351562 17.25 38.449219 16.300781 C 30.851562 12.5 22.398438 15.773438 18.148438 24.175781 C 16.800781 26.851562 16.199219 29.550781 16.074219 33.625 L 15.925781 37.398438 L 14.726562 38.050781 C 12.625 39.226562 11.601562 41.800781 12.25 44.199219 C 12.601562 45.523438 14.351562 47.375 15.523438 47.675781 C 16.25 47.875 16.375 48.050781 16.800781 49.5 C 17.148438 50.75 17.175781 51.148438 16.925781 51.300781 C 16.550781 51.550781 12.726562 52.925781 11.824219 53.148438 C 11.226562 53.324219 11.175781 53.273438 11.324219 52.601562 Z M 11.324219 52.601562 "/>
<path style=" stroke:none;fill-rule:nonzero;fill:rgb(84.313725%,80.784314%,79.607843%);fill-opacity:1;" d="M 14.625 45.449219 C 13.199219 44 12.949219 42.726562 13.800781 41.074219 C 14.324219 40 15.574219 38.75 15.851562 39.023438 C 16.074219 39.226562 16.125 46.5 15.898438 46.5 C 15.773438 46.5 15.199219 46.023438 14.625 45.449219 Z M 14.625 45.449219 "/>
<path style=" stroke:none;fill-rule:nonzero;fill:rgb(84.313725%,80.784314%,79.607843%);fill-opacity:1;" d="M 47.949219 42.824219 C 48 40.773438 48.101562 39.074219 48.148438 39.023438 C 48.425781 38.75 49.675781 40 50.199219 41.074219 C 51.050781 42.726562 50.800781 44 49.375 45.449219 C 48.800781 46.023438 48.226562 46.5 48.101562 46.5 C 47.976562 46.5 47.898438 44.851562 47.949219 42.824219 Z M 47.949219 42.824219 "/>
<path style=" stroke:none;fill-rule:nonzero;fill:rgb(100%,100%,100%);fill-opacity:1;" d="M 24.425781 38.375 C 21.175781 37.226562 20.273438 33.175781 22.726562 30.726562 C 26.101562 27.324219 31.75 30.625 30.5 35.273438 C 30.125 36.648438 28.699219 38.101562 27.375 38.476562 C 26.101562 38.824219 25.601562 38.800781 24.425781 38.375 Z M 26.101562 35.675781 C 26.601562 35.300781 26.726562 34.125 26.300781 33.699219 C 25.875 33.273438 24.699219 33.398438 24.324219 33.898438 C 23.898438 34.5 23.925781 35 24.425781 35.550781 C 24.898438 36.074219 25.476562 36.125 26.101562 35.675781 Z M 26.101562 35.675781 "/>
<path style=" stroke:none;fill-rule:nonzero;fill:rgb(100%,100%,100%);fill-opacity:1;" d="M 36.375 38.398438 C 32.824219 37.074219 32.273438 32.226562 35.449219 30.101562 C 39.523438 27.351562 44.523438 32.25 41.949219 36.449219 C 40.824219 38.25 38.375 39.125 36.375 38.398438 Z M 39.875 33.648438 C 40.050781 33.125 40 32.898438 39.574219 32.449219 C 38.523438 31.425781 36.949219 32.574219 37.574219 33.925781 C 38.023438 34.949219 39.449219 34.773438 39.875 33.648438 Z M 39.875 33.648438 "/>
<path style=" stroke:none;fill-rule:nonzero;fill:rgb(69.019608%,88.235294%,96.862745%);fill-opacity:1;" d="M 11.324219 52.601562 C 11.550781 51.398438 12.074219 46.726562 11.976562 46.648438 C 11.925781 46.601562 10.5 45.75 8.800781 44.75 C 7.125 43.75 5.675781 42.851562 5.625 42.75 C 5.550781 42.648438 5.949219 42.273438 6.476562 41.925781 C 7 41.574219 8.476562 40.425781 9.75 39.375 L 12.050781 37.449219 L 11.449219 36.824219 C 11.148438 36.476562 9.101562 35.023438 6.949219 33.574219 C 4.773438 32.148438 2.949219 30.875 2.875 30.75 C 2.523438 30.199219 11.375 25.5 12.824219 25.5 C 13.375 25.5 13.375 25.425781 12.648438 24.300781 C 11.75 22.851562 10.324219 19.949219 9.648438 18.199219 C 9.023438 16.523438 7.925781 12.25 8.074219 12.101562 C 8.125 12.050781 9.101562 12.175781 10.273438 12.375 C 12.800781 12.800781 17.101562 13.25 18.773438 13.25 C 19.976562 13.25 19.976562 13.25 20.25 12.273438 C 20.699219 10.550781 21.25 6.425781 21.25 4.574219 C 21.25 2.851562 21.273438 2.75 21.824219 2.75 C 23.226562 2.75 26.898438 5.175781 30.425781 8.375 L 32 9.800781 L 33.675781 8.574219 C 37.226562 6.023438 41.023438 4 42.273438 4 L 42.925781 4 L 43.074219 6.75 C 43.273438 9.949219 43.726562 13.824219 43.976562 14.226562 C 44.125 14.425781 44.800781 14.351562 46.5 13.875 C 49.175781 13.175781 52.523438 12.851562 54.574219 13.101562 L 55.976562 13.273438 L 55.074219 14.699219 C 54.574219 15.476562 53.75 17.023438 53.226562 18.148438 C 52.273438 20.125 50.75 24.476562 50.75 25.125 C 50.75 25.574219 54.476562 26.25 58.199219 26.425781 C 59.875 26.5 61.25 26.648438 61.25 26.726562 C 61.25 27.074219 59.175781 30.625 58.226562 31.925781 C 57.625 32.726562 56.300781 34.25 55.273438 35.324219 L 53.375 37.300781 L 54.449219 38.25 C 55.023438 38.773438 56.226562 39.574219 57.125 40.023438 C 58.023438 40.5 58.75 40.949219 58.75 41.050781 C 58.75 41.300781 57.324219 42.925781 56.148438 44 C 55.101562 44.949219 51.425781 47.648438 50.949219 47.800781 C 50.699219 47.898438 50.699219 48.351562 50.949219 50.023438 C 51.125 51.175781 51.324219 52.398438 51.425781 52.726562 C 51.574219 53.300781 51.550781 53.324219 50.351562 53.199219 C 49.675781 53.125 48.5 52.875 47.726562 52.648438 L 46.300781 52.226562 L 46.925781 50.300781 C 47.273438 49.25 47.574219 48.25 47.625 48.101562 C 47.675781 47.949219 48.050781 47.75 48.476562 47.675781 C 49.601562 47.449219 51.398438 45.550781 51.75 44.199219 C 52.398438 41.800781 51.375 39.226562 49.273438 38.050781 L 48.074219 37.398438 L 47.925781 33.625 C 47.75 28.398438 46.800781 25.273438 44.226562 21.476562 C 42.925781 19.574219 40.351562 17.25 38.449219 16.300781 C 30.851562 12.5 22.398438 15.773438 18.148438 24.175781 C 16.800781 26.851562 16.199219 29.550781 16.074219 33.625 L 15.925781 37.398438 L 14.726562 38.050781 C 12.625 39.226562 11.601562 41.800781 12.25 44.199219 C 12.601562 45.523438 14.351562 47.375 15.523438 47.675781 C 16.25 47.875 16.375 48.050781 16.800781 49.5 C 17.148438 50.75 17.175781 51.148438 16.925781 51.300781 C 16.550781 51.550781 12.726562 52.925781 11.824219 53.148438 C 11.226562 53.324219 11.175781 53.273438 11.324219 52.601562 Z M 11.324219 52.601562 "/>
<path style=" stroke:none;fill-rule:nonzero;fill:rgb(69.019608%,88.235294%,96.862745%);fill-opacity:1;" d="M 25.375 28.601562 C 22.699219 28.125 21.800781 27.800781 21.5 27.226562 C 21.199219 26.675781 21.5 25.898438 22.148438 25.648438 C 22.375 25.574219 23.175781 25.648438 23.949219 25.875 C 28.699219 27.074219 35.726562 26.976562 41.050781 25.625 C 41.523438 25.5 41.851562 25.601562 42.226562 25.976562 C 42.875 26.625 42.875 26.875 42.273438 27.476562 C 41.800781 27.949219 40.324219 28.351562 37.425781 28.773438 C 35.050781 29.101562 27.648438 29 25.375 28.601562 Z M 25.375 28.601562 "/>
</g>
</svg>
